<svg id="visual" viewBox="0 0 900 600" width="900" height="600" xmlns="http://www.w3.org/2000/svg" xmlns:xlink="http://www.w3.org/1999/xlink" version="1.1"><rect x="0" y="0" width="900" height="600" fill="#001220"></rect><defs><linearGradient id="grad1_0" x1="33.3%" y1="0%" x2="100%" y2="100%"><stop offset="20%" stop-color="#001220" stop-opacity="1"></stop><stop offset="80%" stop-color="#001220" stop-opacity="1"></stop></linearGradient></defs><defs><linearGradient id="grad2_0" x1="0%" y1="0%" x2="66.7%" y2="100%"><stop offset="20%" stop-color="#001220" stop-opacity="1"></stop><stop offset="80%" stop-color="#001220" stop-opacity="1"></stop></linearGradient></defs><g transform="translate(900, 0)"><path d="M0 351.5C-48.6 349.2 -97.3 346.8 -134.5 324.8C-171.8 302.7 -197.6 261 -226.3 226.3C-254.9 191.6 -286.3 164 -307.7 127.4C-329 90.9 -340.3 45.4 -351.5 0L0 0Z" fill="#FBAE3C"></path></g><g transform="translate(0, 600)"><path d="M0 -351.5C44.7 -346.3 89.4 -341 134.5 -324.8C179.7 -308.6 225.2 -281.5 241.8 -241.8C258.5 -202.2 246.1 -149.9 259.6 -107.5C273.1 -65.1 312.3 -32.6 351.5 0L0 0Z" fill="#FBAE3C"></path></g></svg>